PathFileType	4	(X/Y/Z)	C:/Users/beibeiliu/ov580/test_trc/User3\sequence.40_training_dense_left.trc
DataRate	CameraRate	NumFrames	NumMarkers	Units	OrigDataRate	OrigDataStartFrame	OrigNumFrames
120	120	7	19	mm	120	144	287
Frame#	Time	ThumbCMC			ThumbMCP			ThumbIP			ThumbTip			IndexMCP			IndexPIP			IndexTip			MiddleMCP			MiddlePIP			MiddleTip			RingMCP			RingPIP			RingTip			PinkyMCP			PinkyPIP			PinkyTip			BackHand1			BackHand2			BackHand3	
		X0	Y0	Z0	X1	Y1	Z1	X2	Y2	Z2	X3	Y3	Z3	X4	Y4	Z4	X5	Y5	Z5	X6	Y6	Z6	X7	Y7	Z7	X8	Y8	Z8	X9	Y9	Z9	X10	Y10	Z10	X11	Y11	Z11	X12	Y12	Z12	X13	Y13	Z13	X14	Y14	Z14	X15	Y15	Z15	X16	Y16	Z16	X17	Y17	Z17	X18	Y18	Z18	
143	1.19167	-183.977	-0.124764	34.8013	-159.346	-0.997458	9.23759	-141.125	0.0982621	-15.057	-128.168	-8.90588	-33.7212	-193.355	-12.1881	-38.9985	-171.721	-9.39728	-61.0276	-141.932	-5.16908	-63.1514	-189.709	-37.4228	-46.5304	-161.998	-32.3538	-63.522	-127.221	-23.3822	-51.4566	-190.575	-55.8557	-34.4178	-170.552	-56.8057	-60.9858	-147.738	-51.3944	-70.7924	-185.734	-75.4723	-15.8531	-179.564	-77.3552	-40.8303	-162.082	-80.1938	-63.7294	-211.48	-54.3753	13.3962	-211.741	-60.4406	44.5949	-214.618	-26.9918	28.7756	
144	1.2	-182.713	-1.09939	35.5791	-158.127	1.73655	7.03702	-140.404	-1.59691	-17.0958	-125.947	-9.34532	-36.9326	-194.894	-12.6159	-39.0305	-171.866	-6.54801	-61.7591	-140.728	-3.34957	-65.4862	-190.2	-37.1679	-44.07	-163.787	-32.4891	-62.0683	-126.375	-22.7366	-48.3537	-188.564	-54.4433	-38.7512	-172.964	-55.8724	-57.6139	-140.676	-52.2505	-69.1686	-186.433	-71.6264	-16.8942	-178.071	-78.9749	-42.2651	-165.49	-81.4213	-59.7824	-211.016	-53.9177	14.6862	-213.13	-58.5911	45.3343	-215.13	-24.0207	26.0059	
145	1.20833	-182.264	0.318945	31.2679	-157.338	-0.070062	7.27273	-138.818	-4.07218	-18.6635	-125.397	-12.6326	-35.6382	-193.374	-13.0083	-42.5297	-174.665	-9.0223	-62.7831	-146.838	-5.00959	-68.2438	-190.06	-38.3239	-43.1993	-163.972	-34.4094	-62.1572	-125.357	-23.6679	-49.7684	-190.284	-53.9015	-34.0363	-170.027	-57.1514	-58.3409	-139.114	-50.2679	-65.21	-187.683	-76.7273	-21.0868	-177.857	-81.3388	-40.7239	-161.829	-82.4514	-60.4417	-208.993	-56.8688	15.9236	-213.225	-59.9793	45.3788	-215.087	-23.4425	28.6612	
146	1.21667	-183.124	-4.89534	33.4312	-157.48	-3.75789	8.17348	-136.814	-1.08045	-14.7182	-125.739	-16.138	-32.1991	-196.209	-15.208	-41.2877	-179.289	-6.65342	-62.6796	-145.618	-3.97224	-71.4022	-193.91	-35.3584	-43.9338	-166.984	-33.0729	-64.1064	-131.62	-24.2347	-53.5446	-190.347	-55.2529	-37.8098	-166.901	-55.6198	-60.0139	-140.633	-50.3726	-60.2495	-185.574	-75.7221	-19.6344	-178.283	-78.149	-41.5335	-159.99	-77.1432	-62.1644	-208.625	-56.563	16.5791	-212.526	-59.9942	44.123	-217.669	-27.4649	28.8195	
147	1.225	-183.626	-3.69671	32.6411	-156.33	-0.626337	8.92147	-139.906	-8.72855	-14.9275	-124.411	-18.5139	-33.562	-200.251	-11.3154	-39.0991	-182.141	-6.466	-63.1994	-154.562	-2.05073	-72.3149	-194.115	-37.6234	-44.3665	-171.332	-30.4654	-64.5689	-136.139	-22.2081	-53.3302	-189.47	-57.111	-34.4011	-166.567	-52.0037	-56.7071	-134.719	-45.0555	-50.1884	-185.317	-76.6308	-19.3861	-173.75	-75.6608	-43.7876	-153.424	-73.8055	-60.4454	-208.557	-59.3714	14.4795	-211.721	-57.8294	48.869	-216.762	-23.4061	30.3548	
148	1.23333	-185.664	-1.64382	36.118	-158.066	-2.903	7.80891	-140.569	-10.0057	-14.3046	-124.975	-23.1858	-31.7392	-201.905	-13.504	-36.7682	-184.541	-8.41787	-62.4702	-154.874	-3.50723	-72.6416	-197.494	-33.5985	-42.4979	-171.521	-27.5758	-63.8005	-136.255	-22.9258	-48.2976	-188.131	-56.8754	-35.1701	-165.321	-50.6226	-54.2465	-136.044	-36.9618	-43.534	-184.168	-72.96	-19.0905	-172.152	-72.47	-43.4093	-149.096	-68.9594	-58.2613	-209.034	-58.5693	14.8881	-213.628	-56.7759	49.9611	-218.627	-26.0206	29.8525	
149	1.24167	-186.252	-3.94598	36.4082	-156.591	-0.0531352	11.3245	-138.228	-10.5131	-16.513	-127.685	-29.5292	-31.8998	-200.502	-12.4806	-40.4001	-184.87	-8.92727	-61.5401	-152.943	0.80337	-69.7646	-198.261	-33.115	-40.5268	-173.563	-29.7525	-64.256	-135.651	-18.1415	-45.8043	-190.051	-51.544	-34.9236	-163.97	-49.4385	-53.7185	-137.092	-40.5811	-42.866	-183.256	-70.0999	-17.578	-171.145	-72.8373	-40.0502	-146.876	-65.4473	-54.6796	-210.052	-59.3651	15.766	-211.564	-60.7591	48.1714	-220.184	-23.6011	30.8417	
